<svg id="Capa_1" enable-background="new 0 0 512 512" height="512" viewBox="0 0 512 512" width="512" xmlns="http://www.w3.org/2000/svg"><g><circle cx="256" cy="256" fill="#fff5f5" r="150"/><path d="m406 256c0-82.843-67.157-150-150-150v300c82.843 0 150-67.157 150-150z" fill="#dfdef5"/><path d="m36.593 310.22c-4.375-17.763-6.593-36.005-6.593-54.22 0-124.617 101.383-226 226-226 70.044 0 136.032 33.022 178.518 87.801l-25.086-2.195c-8.271-.709-15.528 5.383-16.251 13.636-.722 8.253 5.383 15.528 13.636 16.251l56.588 4.951c.445.038.887.058 1.325.058 7.692 0 14.242-5.886 14.926-13.693l4.951-56.588c.722-8.253-5.383-15.528-13.636-16.251-8.257-.718-15.529 5.383-16.251 13.636l-1.373 15.691c-18.985-23.04-41.898-42.727-67.683-57.956-39.142-23.121-83.978-35.341-129.664-35.341-68.38 0-132.667 26.629-181.02 74.98-48.351 48.352-74.98 112.639-74.98 181.02 0 20.63 2.511 41.286 7.464 61.394 1.685 6.84 7.811 11.417 14.553 11.417 1.188 0 2.395-.143 3.599-.439 8.043-1.981 12.958-10.108 10.977-18.152z" fill="#ff9100"/><path d="m504.536 194.606c-1.981-8.044-10.112-12.962-18.151-10.978-8.044 1.98-12.959 10.107-10.978 18.151 4.375 17.764 6.593 36.006 6.593 54.221 0 124.617-101.383 226-226 226-70.045 0-136.032-33.022-178.518-87.801l25.087 2.196c8.255.71 15.527-5.384 16.251-13.636.722-8.253-5.383-15.528-13.636-16.251l-56.588-4.951c-8.271-.706-15.528 5.383-16.251 13.636l-4.951 56.588c-.722 8.253 5.383 15.528 13.636 16.251.445.038.887.058 1.325.058 7.692 0 14.242-5.886 14.926-13.693l1.375-15.711c18.987 23.044 41.892 42.745 67.681 57.977 39.141 23.117 83.977 35.337 129.663 35.337 68.38 0 132.667-26.629 181.02-74.98 48.351-48.353 74.98-112.64 74.98-181.02 0-20.63-2.511-41.286-7.464-61.394z" fill="#ff9100"/><path d="m328.99 159.577 14.626-25.332c-8.089-5.831-16.778-10.882-25.964-15.029l-14.642 25.361c-4.142 7.174-1.684 16.348 5.49 20.49 7.174 4.143 16.348 1.684 20.49-5.49z" fill="#07485e"/><path d="m376 271h29.256c.49-4.934.745-9.937.745-15s-.255-10.066-.745-15h-29.256c-8.284 0-15 6.716-15 15 0 8.284 6.716 15 15 15z" fill="#07485e"/><path d="m136 241h-29.256c-.49 4.934-.745 9.937-.745 15s.255 10.066.745 15h29.256c8.284 0 15-6.716 15-15 0-8.284-6.716-15-15-15z" fill="#09607d"/><path d="m367.423 208.99 25.361-14.642c-4.147-9.186-9.198-17.875-15.029-25.964l-25.332 14.625c-7.174 4.142-9.632 13.316-5.49 20.49 4.142 7.175 13.316 9.633 20.49 5.491z" fill="#07485e"/><path d="m144.577 303.01-25.361 14.642c4.147 9.186 9.198 17.875 15.029 25.964l25.332-14.625c7.174-4.142 9.632-13.316 5.49-20.49-4.142-7.175-13.316-9.633-20.49-5.491z" fill="#09607d"/><path d="m183.01 352.423-14.625 25.332c8.089 5.831 16.778 10.882 25.964 15.029l14.642-25.361c4.142-7.174 1.684-16.348-5.49-20.49-7.175-4.142-16.349-1.684-20.491 5.49z" fill="#07485e"/><g fill="#09607d"><path d="m271 136v-29.256c-4.934-.49-9.937-.745-15-.745s-10.066.255-15 .745v29.256c0 8.284 6.716 15 15 15 8.284 0 15-6.716 15-15z"/><path d="m241 376v29.256c4.934.49 9.937.745 15 .745s10.066-.255 15-.745v-29.256c0-8.284-6.716-15-15-15-8.284 0-15 6.716-15 15z"/><path d="m208.99 144.577-14.642-25.361c-9.186 4.147-17.875 9.198-25.964 15.029l14.625 25.332c4.142 7.174 13.316 9.632 20.49 5.49 7.175-4.142 9.633-13.316 5.491-20.49z"/></g><path d="m303.01 367.423 14.642 25.361c9.186-4.147 17.875-9.198 25.964-15.029l-14.626-25.332c-4.142-7.174-13.316-9.632-20.49-5.49-7.174 4.142-9.632 13.316-5.49 20.49z" fill="#07485e"/><path d="m159.577 183.01-25.332-14.625c-5.831 8.089-10.882 16.778-15.029 25.964l25.361 14.642c7.174 4.142 16.348 1.684 20.49-5.49 4.142-7.175 1.684-16.349-5.49-20.491z" fill="#09607d"/><path d="m352.423 328.99 25.332 14.625c5.831-8.089 10.882-16.778 15.029-25.964l-25.361-14.642c-7.174-4.142-16.348-1.684-20.49 5.49-4.142 7.175-1.684 16.349 5.49 20.491z" fill="#07485e"/><path d="m256 271h-50c-8.284 0-15-6.716-15-15s6.716-15 15-15h35v-45c0-8.284 6.716-15 15-15s15 6.716 15 15v60c0 8.284-6.716 15-15 15z" fill="#09607d"/><path d="m434.518 117.801-25.086-2.195c-8.271-.709-15.528 5.383-16.251 13.636-.722 8.253 5.383 15.528 13.636 16.251l56.588 4.951c.445.038.887.058 1.325.058 7.692 0 14.242-5.886 14.926-13.693l4.951-56.588c.722-8.253-5.383-15.528-13.636-16.251-8.257-.718-15.529 5.383-16.251 13.636l-1.373 15.691c-18.985-23.04-41.898-42.727-67.683-57.956-39.142-23.121-83.978-35.341-129.664-35.341v30c70.044 0 136.032 33.022 178.518 87.801z" fill="#ff6426"/><path d="m486.385 183.629c-8.044 1.98-12.959 10.107-10.978 18.151 4.375 17.763 6.593 36.005 6.593 54.22 0 124.617-101.383 226-226 226v30c68.38 0 132.667-26.629 181.02-74.98 48.351-48.353 74.98-112.64 74.98-181.02 0-20.63-2.511-41.286-7.464-61.394-1.981-8.044-10.112-12.961-18.151-10.977z" fill="#ff6426"/><g fill="#07485e"><path d="m256 151c8.284 0 15-6.716 15-15v-29.256c-4.934-.49-9.937-.745-15-.745z"/><path d="m256 361v45c5.063 0 10.066-.255 15-.745v-29.255c0-8.284-6.716-15-15-15z"/></g><path d="m271 256v-60c0-8.284-6.716-15-15-15v90c8.284 0 15-6.716 15-15z" fill="#07485e"/><path d="m256 91c-90.981 0-165 74.019-165 165s74.019 165 165 165 165-74.019 165-165-74.019-165-165-165zm0 300c-74.439 0-135-60.561-135-135s60.561-135 135-135 135 60.561 135 135-60.561 135-135 135z" fill="#9bfbff"/><path d="m256 91v30c74.439 0 135 60.561 135 135s-60.561 135-135 135v30c90.981 0 165-74.019 165-165s-74.019-165-165-165z" fill="#5ecef4"/></g></svg>