<svg id="Capa_1" enable-background="new 0 0 512 512" height="512" viewBox="0 0 512 512" width="512" xmlns="http://www.w3.org/2000/svg"><g><g><circle cx="256" cy="256" fill="#5cffce" r="248.5"/><path d="m299.68 500.67c-14.18 2.52-28.78 3.83-43.68 3.83-137.24 0-248.5-111.26-248.5-248.5s111.26-248.5 248.5-248.5c14.9 0 29.5 1.31 43.68 3.83-116.42 20.63-204.83 122.33-204.83 244.67s88.41 224.04 204.83 244.67z" fill="#5cffce"/><circle cx="256" cy="256" fill="#f9f6f9" r="204.07"/><path d="m284.54 458.09c-9.32 1.31-18.85 1.98-28.54 1.98-112.7 0-204.07-91.37-204.07-204.07s91.37-204.07 204.07-204.07c9.69 0 19.22.67 28.54 1.98-99.19 13.89-175.51 99.08-175.51 202.09s76.32 188.2 175.51 202.09z" fill="#5cffce"/><g fill="#5cffce"><path d="m343.89 194.509c-2.533-48.805-42.82-87.807-91.715-88.792-47.504-.978-88.23 33.737-94.783 80.697-.6 4.294-.904 8.685-.904 13.049 0 14.113 11.441 25.554 25.554 25.554s25.554-11.441 25.554-25.554c0-2.007.139-4.019.413-5.982 2.977-21.338 21.508-37.103 43.136-36.666 22.235.448 40.553 18.169 41.705 40.343.615 11.846-3.528 23.09-11.665 31.66-8.143 8.578-19.129 13.301-30.933 13.301-14.113 0-25.554 11.441-25.554 25.554v40.661c0 14.113 11.441 25.554 25.554 25.554s25.554-11.441 25.554-25.554v-18.689c16.046-4.571 30.804-13.378 42.443-25.637 17.884-18.835 26.989-43.517 25.641-69.499z"/><path d="m250.253 354.684c-14.113 0-25.554 11.441-25.554 25.554v.511c0 14.113 11.441 25.554 25.554 25.554s25.554-11.441 25.554-25.554v-.511c0-14.113-11.441-25.554-25.554-25.554z"/></g><g fill="#5cffce"><path d="m176.422 186.414c-.6 4.3-.9 8.69-.9 13.05 0 10.76 6.64 19.96 16.04 23.72-2.94 1.19-6.15 1.84-9.52 1.84-14.11 0-25.55-11.44-25.55-25.56 0-4.36.3-8.75.9-13.05 6.55-46.96 47.28-81.67 94.78-80.69 2.55.05 5.07.21 7.57.47-42.45 4.29-77.3 37.09-83.32 80.22z"/><path d="m300.222 228.824c-8.15 8.58-19.13 13.3-30.94 13.3-14.11 0-25.55 11.44-25.55 25.55v40.66c0 10.76 6.64 19.96 16.04 23.72-2.94 1.19-6.16 1.84-9.52 1.84-14.11 0-25.55-11.44-25.55-25.56v-40.66c0-14.11 11.44-25.55 25.55-25.55 11.81 0 22.79-4.72 30.93-13.3 8.14-8.57 12.28-19.82 11.67-31.66-1-19.23-14.91-35.11-33.09-39.28 3.35-.77 6.84-1.14 10.42-1.07 22.23.45 40.55 18.17 41.7 40.35.61 11.84-3.53 23.09-11.66 31.66z"/><path d="m259.772 404.464c-2.94 1.19-6.16 1.84-9.52 1.84-14.11 0-25.55-11.44-25.55-25.55v-.51c0-14.12 11.44-25.56 25.55-25.56 3.36 0 6.58.65 9.52 1.84-9.4 3.76-16.04 12.96-16.04 23.72v.51c0 10.75 6.64 19.95 16.04 23.71z"/></g></g><g><path d="m256 44.43c-116.66 0-211.57 94.91-211.57 211.57 0 47.159 15.177 91.773 43.89 129.019 2.529 3.28 7.239 3.889 10.519 1.361 3.28-2.529 3.89-7.239 1.361-10.519-26.672-34.598-40.77-76.045-40.77-119.861 0-108.389 88.181-196.57 196.57-196.57s196.57 88.181 196.57 196.57-88.181 196.57-196.57 196.57c-51.298 0-99.847-19.646-136.704-55.319-2.976-2.881-7.724-2.803-10.605.173s-2.803 7.724.173 10.605c39.67 38.396 91.924 59.541 147.136 59.541 116.66 0 211.57-94.91 211.57-211.57s-94.91-211.57-211.57-211.57z"/><path d="m437.02 74.98c-48.353-48.351-112.64-74.98-181.02-74.98s-132.667 26.629-181.02 74.98c-48.351 48.353-74.98 112.64-74.98 181.02s26.629 132.667 74.98 181.02c48.353 48.351 112.64 74.98 181.02 74.98s132.667-26.629 181.02-74.98c48.351-48.353 74.98-112.64 74.98-181.02s-26.629-132.667-74.98-181.02zm-10.607 351.433c-45.519 45.519-106.039 70.587-170.413 70.587s-124.894-25.068-170.413-70.587-70.587-106.039-70.587-170.413 25.068-124.894 70.587-170.413 106.039-70.587 170.413-70.587 124.894 25.068 170.413 70.587 70.587 106.039 70.587 170.413-25.068 124.894-70.587 170.413z"/><path d="m252.021 113.219c21.462.427 41.925 8.884 57.62 23.815 3.001 2.856 7.749 2.737 10.603-.264 2.855-3.001 2.737-7.748-.264-10.603-18.415-17.52-42.444-27.444-67.655-27.945-51.265-1.049-95.285 36.41-102.363 87.152-.645 4.621-.972 9.36-.972 14.086 0 18.229 14.826 33.06 33.05 33.06 18.229 0 33.06-14.831 33.06-33.06 0-1.71.112-3.366.337-4.942 2.456-17.577 17.77-30.587 35.561-30.209 18.321.371 33.415 14.971 34.362 33.244.511 9.762-2.902 19.033-9.608 26.103-6.717 7.071-15.773 10.965-25.502 10.965-18.224 0-33.05 14.826-33.05 33.05v40.66c0 18.229 14.826 33.06 33.05 33.06 18.229 0 33.06-14.831 33.06-33.06v-13.187c15.365-5.328 29.235-14.232 40.38-25.97 19.314-20.351 29.147-47.005 27.69-75.053-.785-15.064-4.822-29.403-11.999-42.619-1.978-3.64-6.529-4.988-10.17-3.011-3.64 1.977-4.988 6.53-3.011 10.17 6.102 11.234 9.534 23.427 10.201 36.239 1.242 23.899-7.136 46.61-23.589 63.947-10.6 11.165-24.106 19.323-39.06 23.592-3.221.92-5.441 3.863-5.441 7.212v18.68c0 9.958-8.102 18.06-18.06 18.06-9.953 0-18.05-8.102-18.05-18.06v-40.66c0-9.953 8.097-18.05 18.05-18.05 13.882 0 26.801-5.553 36.381-15.639 9.569-10.086 14.438-23.303 13.709-37.209-1.352-26.084-22.893-46.932-49.041-47.46-25.44-.513-47.212 18.037-50.714 43.108-.322 2.254-.485 4.623-.485 7.04 0 9.958-8.102 18.06-18.06 18.06-9.953 0-18.05-8.102-18.05-18.06 0-4.035.278-8.077.828-12.014 6.027-43.218 43.525-75.131 87.202-74.228z"/><path d="m250.253 347.184c-18.226 0-33.054 14.828-33.054 33.054v.511c0 18.226 14.828 33.054 33.054 33.054s33.054-14.828 33.054-33.054v-.511c0-18.226-14.828-33.054-33.054-33.054zm18.054 33.565c0 9.955-8.099 18.054-18.054 18.054s-18.054-8.099-18.054-18.054v-.511c0-9.955 8.099-18.054 18.054-18.054s18.054 8.099 18.054 18.054z"/></g></g></svg>