<svg id="Capa_1" enable-background="new 0 0 512 512" height="512" viewBox="0 0 512 512" width="512" xmlns="http://www.w3.org/2000/svg"><g><path d="m512 256c0 141.385-114.615 256-256 256s-256-114.615-256-256 114.615-256 256-256 256 114.615 256 256z" fill="#f44545"/><path d="m443.426 256c0 103.512-83.913 187.426-187.426 187.426s-187.426-83.914-187.426-187.426 83.914-187.426 187.426-187.426 187.426 83.914 187.426 187.426z" fill="#fb5858"/><path d="m470.029 109.443-44.113 44.113-67.14-67.14 44.113-44.113c10.294-10.294 26.984-10.294 37.279 0l29.862 29.862c10.293 10.294 10.293 26.984-.001 37.278z" fill="#717ed6"/><path d="m226.266 366.456-52.625 9.504c-12.336 2.228-23.696 8.172-32.56 17.036l-39.819 39.819c-6.176 6.176-16.191 6.176-22.367 0-6.176-6.176-6.176-16.191 0-22.367l40.007-40.007c8.747-8.747 14.653-19.928 16.947-32.083l9.926-52.581c2.294-12.155 8.201-23.336 16.947-32.083l166.299-166.298c10.294-10.294 26.984-10.294 37.279 0l58.636 58.636c10.294 10.294 10.294 26.984 0 37.279l-166.11 166.11c-8.864 8.863-20.225 14.807-32.56 17.035z" fill="#c8e2fd"/><path d="m409.942 126.563 4.601 4.601c17.27 17.27 17.27 45.27 0 62.539l-113.451 113.451c-11.387 11.387-29.848 11.387-41.235 0l-25.905-25.905c-11.387-11.387-11.387-29.848 0-41.235l113.451-113.451c17.269-17.27 45.269-17.27 62.539 0z" fill="#e9f3fe"/><path d="m281.019 276.86-38.997 38.997c-3.905 3.905-10.237 3.905-14.142 0l-31.405-31.405c-3.905-3.905-3.905-10.237 0-14.142l38.997-38.997c3.905-3.905 10.237-3.905 14.142 0l31.405 31.405c3.905 3.905 3.905 10.237 0 14.142z" fill="#20b7a1"/><path d="m341.749 216.13-63.57 63.57c-11.716 11.716-30.711 11.716-42.426 0l-3.121-3.121c-11.716-11.716-11.716-30.711 0-42.426l63.57-63.57c3.905-3.905 10.237-3.905 14.142 0l31.405 31.405c3.905 3.905 3.905 10.237 0 14.142z" fill="#24d3b5"/><path d="m303.772 194.375 15.703 15.703c1.953 1.953 1.953 5.118 0 7.071l-.52.52c-1.953 1.953-5.118 1.953-7.071 0l-15.703-15.703c-1.953-1.953-1.953-5.118 0-7.071l.52-.52c1.952-1.952 5.118-1.952 7.071 0zm-15.183 15.183c-1.953-1.953-5.118-1.953-7.071 0l-.52.52c-1.953 1.953-1.953 5.118 0 7.071l15.703 15.703c1.953 1.953 5.118 1.953 7.071 0l.52-.52c1.953-1.953 1.953-5.118 0-7.071zm-30.365 30.365c-1.953-1.953-5.118-1.953-7.071 0l-.52.52c-1.953 1.953-1.953 5.118 0 7.071l15.703 15.703c1.953 1.953 5.118 1.953 7.071 0l.52-.52c1.953-1.953 1.953-5.118 0-7.071zm15.182-15.183c-1.953-1.953-5.118-1.953-7.071 0l-.52.52c-1.953 1.953-1.953 5.118 0 7.071l.52.52c1.953 1.953 5.118 1.953 7.071 0l.52-.52c1.953-1.953 1.953-5.118 0-7.071zm15.183 15.183c-1.953-1.953-5.118-1.953-7.071 0l-.52.52c-1.953 1.953-1.953 5.118 0 7.071l.52.52c1.953 1.953 5.118 1.953 7.071 0l.52-.52c1.953-1.953 1.953-5.118 0-7.071zm-53.139 53.139c-1.953-1.953-5.118-1.953-7.071 0l-.52.52c-1.953 1.953-1.953 5.118 0 7.071l.52.52c1.953 1.953 5.118 1.953 7.071 0l.52-.52c1.953-1.953 1.953-5.118 0-7.071z" fill="#adebdc"/><path d="m73.159 437.019 1.533 1.533c5.753 5.753 5.753 15.081 0 20.834l-15.823 15.823c-5.753 5.753-15.081 5.753-20.834 0l-1.533-1.533c-5.753-5.753-5.753-15.081 0-20.834l15.823-15.823c5.753-5.753 15.081-5.753 20.834 0zm254.606-265.619 13.167 13.167c3.072 3.072 8.053 3.072 11.125 0l11.649-11.649c3.072-3.072 3.072-8.053 0-11.125l-13.167-13.167c-3.072-3.072-8.053-3.072-11.125 0l-11.649 11.649c-3.072 3.072-3.072 8.053 0 11.125z" fill="#8c96dd"/><path d="m105.467 404.711 1.533 1.533c5.753 5.753 5.753 15.081 0 20.834l-46.122 46.122-22.367-22.367 46.122-46.122c5.753-5.753 15.081-5.753 20.834 0zm264.321-237.876-8.632 8.632c-3.905 3.905-10.237 3.905-14.142 0l-10.15-10.15c-3.905-3.905-3.905-10.237 0-14.142l8.632-8.632c3.905-3.905 10.237-3.905 14.142 0l10.15 10.15c3.905 3.905 3.905 10.237 0 14.142z" fill="#a6aee5"/><path d="m472.611 135.635-37.649 37.649c-3.57 3.57-9.357 3.57-12.927 0l-82.987-82.987c-3.57-3.57-3.57-9.357 0-12.927l37.649-37.649c10.294-10.294 26.984-10.294 37.279 0l58.636 58.636c10.293 10.294 10.293 26.984-.001 37.278z" fill="#8c96dd"/><path d="m443.15 68.895 29.461 29.461c10.294 10.294 10.294 26.984 0 37.279l-38.335 38.335c-3.191 3.191-8.365 3.191-11.557 0l-8.155-8.155-47.028-47.029c-3.191-3.191-3.191-8.365 0-11.557l38.335-38.335c10.294-10.293 26.984-10.293 37.279.001z" fill="#a6aee5"/><path d="m328.547 87.87 11.387-11.387 95.914 95.914-11.387 11.387z" fill="#717ed6"/><path d="m432.324 117.964c-10.481 10.481-27.475 10.481-37.956 0s-10.481-27.475 0-37.956 27.475-10.481 37.956 0 10.481 27.475 0 37.956z" fill="#e9f3fe"/><path d="m424.733 110.373c-6.289 6.289-16.485 6.289-22.774 0s-6.289-16.485 0-22.774 16.485-6.289 22.774 0c6.288 6.289 6.288 16.485 0 22.774z" fill="#c8e2fd"/><path d="m358.531 351.459c1.953 1.953 1.953 5.118 0 7.071s-5.118 1.953-7.071 0l-21.213-21.213c-1.953-1.953-1.953-5.118 0-7.071s5.118-1.953 7.071 0zm12.803-36.087h-20c-2.761 0-5 2.239-5 5s2.239 5 5 5h20c2.761 0 5-2.239 5-5s-2.239-5-5-5zm-51.569 30.355c-2.761 0-5 2.239-5 5v20c0 2.761 2.239 5 5 5s5-2.239 5-5v-20c0-2.761-2.238-5-5-5zm-159.224-192.257c-1.953-1.953-5.118-1.953-7.071 0s-1.953 5.118 0 7.071l21.213 21.213c1.953 1.953 5.118 1.953 7.071 0s1.953-5.118 0-7.071zm.125 33.158h-20c-2.761 0-5 2.239-5 5s2.239 5 5 5h20c2.761 0 5-2.239 5-5s-2.238-5-5-5zm31.569-50.355c-2.761 0-5 2.239-5 5v20c0 2.761 2.239 5 5 5 2.761 0 5-2.239 5-5v-20c0-2.762-2.239-5-5-5z" fill="#fff5f5"/></g></svg>